M48
; DRILL file {KiCad 7.0.5} date Mon Jun 26 04:39:19 2023
; FORMAT={-:-/ absolute / metric / decimal}
; #@! TF.CreationDate,2023-06-26T04:39:19-05:00
; #@! TF.GenerationSoftware,Kicad,Pcbnew,7.0.5
; #@! TF.FileFunction,MixedPlating,1,2
FMAT,2
METRIC
; #@! TA.AperFunction,Plated,PTH,ComponentDrill
T1C0.700
; #@! TA.AperFunction,Plated,PTH,ComponentDrill
T2C0.900
; #@! TA.AperFunction,Plated,PTH,ComponentDrill
T3C1.000
; #@! TA.AperFunction,Plated,PTH,ComponentDrill
T4C1.100
; #@! TA.AperFunction,Plated,PTH,ComponentDrill
T5C1.320
; #@! TA.AperFunction,NonPlated,NPTH,ComponentDrill
T6C3.500
%
G90
G05
T1
X94.59Y-79.3
X102.21Y-79.3
X105.39Y-80.65
X113.01Y-80.65
T2
X97.4Y-74.235
X97.4Y-76.775
X112.9Y-74.435
X112.9Y-76.975
T3
X90.83Y-124.003
X93.7Y-85.42
X93.7Y-110.8
X96.24Y-85.42
X96.24Y-110.8
X98.78Y-85.42
X98.78Y-110.8
X101.32Y-85.42
X101.32Y-110.8
X103.86Y-85.42
X103.86Y-110.8
X105.83Y-124.003
X106.4Y-85.42
X106.4Y-110.8
X108.94Y-85.42
X108.94Y-110.8
X111.48Y-85.42
X111.48Y-110.8
X114.02Y-85.42
X114.02Y-110.8
X114.3Y-117.125
X114.3Y-119.665
X114.3Y-122.205
X114.3Y-124.745
X114.3Y-127.285
X114.3Y-129.825
X114.3Y-132.365
X114.3Y-134.905
X116.56Y-85.42
X116.56Y-110.8
X119.1Y-85.42
X119.1Y-110.8
X119.5Y-77.089
X121.64Y-85.42
X121.64Y-110.8
X122.04Y-77.089
X124.18Y-85.42
X124.18Y-110.8
X124.58Y-77.089
X126.72Y-85.42
X126.72Y-110.8
X127.0Y-117.125
X127.0Y-119.665
X127.0Y-122.205
X127.0Y-124.745
X127.0Y-127.285
X127.0Y-129.825
X127.0Y-132.365
X127.0Y-134.905
X127.12Y-77.089
X129.26Y-85.42
X129.26Y-110.8
X129.66Y-77.089
X133.3Y-116.8
T4
X90.0Y-135.0
X90.0Y-137.54
X90.0Y-140.08
T5
X93.349Y-152.552
X98.349Y-152.552
X109.3Y-152.4
X114.3Y-152.4
X121.62Y-152.4
X126.62Y-152.4
T6
X106.66Y-137.54
T0
M30
