%TF.GenerationSoftware,KiCad,Pcbnew,7.0.5*%
%TF.CreationDate,2023-06-26T04:39:28-05:00*%
%TF.ProjectId,ProyectoAPMKicadAutoroute,50726f79-6563-4746-9f41-504d4b696361,rev?*%
%TF.SameCoordinates,Original*%
%TF.FileFunction,Soldermask,Bot*%
%TF.FilePolarity,Negative*%
%FSLAX46Y46*%
G04 Gerber Fmt 4.6, Leading zero omitted, Abs format (unit mm)*
G04 Created by KiCad (PCBNEW 7.0.5) date 2023-06-26 04:39:28*
%MOMM*%
%LPD*%
G01*
G04 APERTURE LIST*
%ADD10R,1.700000X1.700000*%
%ADD11O,1.700000X1.700000*%
%ADD12R,1.980000X3.960000*%
%ADD13O,1.980000X3.960000*%
%ADD14R,2.000000X2.000000*%
%ADD15O,2.000000X2.000000*%
%ADD16O,1.400000X1.400000*%
%ADD17C,1.400000*%
%ADD18R,1.800000X1.800000*%
%ADD19C,1.800000*%
%ADD20O,3.500000X3.500000*%
%ADD21R,2.000000X1.905000*%
%ADD22O,2.000000X1.905000*%
G04 APERTURE END LIST*
D10*
%TO.C,J9*%
X133300000Y-116800000D03*
%TD*%
%TO.C,J8*%
X129660000Y-77088800D03*
D11*
X127120000Y-77088800D03*
X124580000Y-77088800D03*
X122040000Y-77088800D03*
X119500000Y-77088800D03*
%TD*%
D12*
%TO.C,J7*%
X98348800Y-152552400D03*
D13*
X93348800Y-152552400D03*
%TD*%
D14*
%TO.C,C1*%
X90830400Y-124002800D03*
D15*
X105830400Y-124002800D03*
%TD*%
D16*
%TO.C,R2*%
X94590000Y-79300000D03*
D17*
X102210000Y-79300000D03*
%TD*%
D18*
%TO.C,De2*%
X97400000Y-76775000D03*
D19*
X97400000Y-74235000D03*
%TD*%
D10*
%TO.C,J4*%
X127000000Y-117125000D03*
D11*
X127000000Y-119665000D03*
X127000000Y-122205000D03*
X127000000Y-124745000D03*
X127000000Y-127285000D03*
X127000000Y-129825000D03*
X127000000Y-132365000D03*
X127000000Y-134905000D03*
%TD*%
D10*
%TO.C,J3*%
X114300000Y-117125000D03*
D11*
X114300000Y-119665000D03*
X114300000Y-122205000D03*
X114300000Y-124745000D03*
X114300000Y-127285000D03*
X114300000Y-129825000D03*
X114300000Y-132365000D03*
X114300000Y-134905000D03*
%TD*%
D19*
%TO.C,De1*%
X112900000Y-74435000D03*
D18*
X112900000Y-76975000D03*
%TD*%
D12*
%TO.C,J5*%
X114300000Y-152400000D03*
D13*
X109300000Y-152400000D03*
%TD*%
D10*
%TO.C,J1*%
X129260000Y-110800000D03*
D11*
X126720000Y-110800000D03*
X124180000Y-110800000D03*
X121640000Y-110800000D03*
X119100000Y-110800000D03*
X116560000Y-110800000D03*
X114020000Y-110800000D03*
X111480000Y-110800000D03*
X108940000Y-110800000D03*
X106400000Y-110800000D03*
X103860000Y-110800000D03*
X101320000Y-110800000D03*
X98780000Y-110800000D03*
X96240000Y-110800000D03*
X93700000Y-110800000D03*
%TD*%
D16*
%TO.C,R1*%
X105390000Y-80650000D03*
D17*
X113010000Y-80650000D03*
%TD*%
D20*
%TO.C,U1*%
X106660000Y-137540000D03*
D21*
X90000000Y-135000000D03*
D22*
X90000000Y-137540000D03*
X90000000Y-140080000D03*
%TD*%
D12*
%TO.C,J6*%
X126620000Y-152400000D03*
D13*
X121620000Y-152400000D03*
%TD*%
D10*
%TO.C,J2*%
X129260000Y-85420000D03*
D11*
X126720000Y-85420000D03*
X124180000Y-85420000D03*
X121640000Y-85420000D03*
X119100000Y-85420000D03*
X116560000Y-85420000D03*
X114020000Y-85420000D03*
X111480000Y-85420000D03*
X108940000Y-85420000D03*
X106400000Y-85420000D03*
X103860000Y-85420000D03*
X101320000Y-85420000D03*
X98780000Y-85420000D03*
X96240000Y-85420000D03*
X93700000Y-85420000D03*
%TD*%
M02*
