%TF.GenerationSoftware,KiCad,Pcbnew,7.0.5*%
%TF.CreationDate,2023-06-26T04:39:27-05:00*%
%TF.ProjectId,ProyectoAPMKicadAutoroute,50726f79-6563-4746-9f41-504d4b696361,rev?*%
%TF.SameCoordinates,Original*%
%TF.FileFunction,Copper,L2,Bot*%
%TF.FilePolarity,Positive*%
%FSLAX46Y46*%
G04 Gerber Fmt 4.6, Leading zero omitted, Abs format (unit mm)*
G04 Created by KiCad (PCBNEW 7.0.5) date 2023-06-26 04:39:27*
%MOMM*%
%LPD*%
G01*
G04 APERTURE LIST*
%TA.AperFunction,ComponentPad*%
%ADD10R,1.700000X1.700000*%
%TD*%
%TA.AperFunction,ComponentPad*%
%ADD11O,1.700000X1.700000*%
%TD*%
%TA.AperFunction,ComponentPad*%
%ADD12R,1.980000X3.960000*%
%TD*%
%TA.AperFunction,ComponentPad*%
%ADD13O,1.980000X3.960000*%
%TD*%
%TA.AperFunction,ComponentPad*%
%ADD14R,2.000000X2.000000*%
%TD*%
%TA.AperFunction,ComponentPad*%
%ADD15O,2.000000X2.000000*%
%TD*%
%TA.AperFunction,ComponentPad*%
%ADD16O,1.400000X1.400000*%
%TD*%
%TA.AperFunction,ComponentPad*%
%ADD17C,1.400000*%
%TD*%
%TA.AperFunction,ComponentPad*%
%ADD18R,1.800000X1.800000*%
%TD*%
%TA.AperFunction,ComponentPad*%
%ADD19C,1.800000*%
%TD*%
%TA.AperFunction,ComponentPad*%
%ADD20R,2.000000X1.905000*%
%TD*%
%TA.AperFunction,ComponentPad*%
%ADD21O,2.000000X1.905000*%
%TD*%
%TA.AperFunction,Conductor*%
%ADD22C,0.500000*%
%TD*%
G04 APERTURE END LIST*
D10*
%TO.P,J9,1,Pin_1*%
%TO.N,Net-(J4-Pin_1)*%
X133300000Y-116800000D03*
%TD*%
%TO.P,J8,1,Pin_1*%
%TO.N,Net-(J2-Pin_1)*%
X129660000Y-77088800D03*
D11*
%TO.P,J8,2,Pin_2*%
%TO.N,Net-(J2-Pin_2)*%
X127120000Y-77088800D03*
%TO.P,J8,3,Pin_3*%
%TO.N,Net-(J2-Pin_3)*%
X124580000Y-77088800D03*
%TO.P,J8,4,Pin_4*%
%TO.N,Net-(J2-Pin_4)*%
X122040000Y-77088800D03*
%TO.P,J8,5,Pin_5*%
%TO.N,Net-(J2-Pin_5)*%
X119500000Y-77088800D03*
%TD*%
D12*
%TO.P,J7,1,Pin_1*%
%TO.N,12V+*%
X98348800Y-152552400D03*
D13*
%TO.P,J7,2,Pin_2*%
%TO.N,GND*%
X93348800Y-152552400D03*
%TD*%
D14*
%TO.P,C1,1*%
%TO.N,12V+*%
X90830400Y-124002800D03*
D15*
%TO.P,C1,2*%
%TO.N,GND*%
X105830400Y-124002800D03*
%TD*%
D16*
%TO.P,R2,2*%
%TO.N,GND*%
X94590000Y-79300000D03*
D17*
%TO.P,R2,1*%
%TO.N,Net-(De2-K)*%
X102210000Y-79300000D03*
%TD*%
D18*
%TO.P,De2,1,K*%
%TO.N,Net-(De2-K)*%
X97400000Y-76775000D03*
D19*
%TO.P,De2,2,A*%
%TO.N,Net-(De2-A)*%
X97400000Y-74235000D03*
%TD*%
D10*
%TO.P,J4,1,Pin_1*%
%TO.N,Net-(J4-Pin_1)*%
X127000000Y-117125000D03*
D11*
%TO.P,J4,2,Pin_2*%
%TO.N,GND*%
X127000000Y-119665000D03*
%TO.P,J4,3,Pin_3*%
%TO.N,Net-(J4-Pin_3)*%
X127000000Y-122205000D03*
%TO.P,J4,4,Pin_4*%
%TO.N,Net-(J4-Pin_4)*%
X127000000Y-124745000D03*
%TO.P,J4,5,Pin_5*%
%TO.N,Net-(J4-Pin_5)*%
X127000000Y-127285000D03*
%TO.P,J4,6,Pin_6*%
%TO.N,Net-(J4-Pin_6)*%
X127000000Y-129825000D03*
%TO.P,J4,7,Pin_7*%
%TO.N,VDD*%
X127000000Y-132365000D03*
%TO.P,J4,8,Pin_8*%
%TO.N,GND*%
X127000000Y-134905000D03*
%TD*%
D10*
%TO.P,J3,1,Pin_1*%
%TO.N,unconnected-(J3-Pin_1-Pad1)*%
X114300000Y-117125000D03*
D11*
%TO.P,J3,2,Pin_2*%
%TO.N,unconnected-(J3-Pin_2-Pad2)*%
X114300000Y-119665000D03*
%TO.P,J3,3,Pin_3*%
%TO.N,unconnected-(J3-Pin_3-Pad3)*%
X114300000Y-122205000D03*
%TO.P,J3,4,Pin_4*%
%TO.N,unconnected-(J3-Pin_4-Pad4)*%
X114300000Y-124745000D03*
%TO.P,J3,5,Pin_5*%
%TO.N,Net-(J3-Pin_5)*%
X114300000Y-127285000D03*
%TO.P,J3,6,Pin_6*%
X114300000Y-129825000D03*
%TO.P,J3,7,Pin_7*%
%TO.N,step*%
X114300000Y-132365000D03*
%TO.P,J3,8,Pin_8*%
%TO.N,dir*%
X114300000Y-134905000D03*
%TD*%
D19*
%TO.P,De1,2,A*%
%TO.N,Net-(De1-A)*%
X112900000Y-74435000D03*
D18*
%TO.P,De1,1,K*%
%TO.N,Net-(De1-K)*%
X112900000Y-76975000D03*
%TD*%
D12*
%TO.P,J5,1,Pin_1*%
%TO.N,Net-(J4-Pin_3)*%
X114300000Y-152400000D03*
D13*
%TO.P,J5,2,Pin_2*%
%TO.N,Net-(J4-Pin_4)*%
X109300000Y-152400000D03*
%TD*%
D10*
%TO.P,J1,1,Pin_1*%
%TO.N,unconnected-(J1-Pin_1-Pad1)*%
X129260000Y-110800000D03*
D11*
%TO.P,J1,2,Pin_2*%
%TO.N,unconnected-(J1-Pin_2-Pad2)*%
X126720000Y-110800000D03*
%TO.P,J1,3,Pin_3*%
%TO.N,dir*%
X124180000Y-110800000D03*
%TO.P,J1,4,Pin_4*%
%TO.N,step*%
X121640000Y-110800000D03*
%TO.P,J1,5,Pin_5*%
%TO.N,unconnected-(J1-Pin_5-Pad5)*%
X119100000Y-110800000D03*
%TO.P,J1,6,Pin_6*%
%TO.N,unconnected-(J1-Pin_6-Pad6)*%
X116560000Y-110800000D03*
%TO.P,J1,7,Pin_7*%
%TO.N,unconnected-(J1-Pin_7-Pad7)*%
X114020000Y-110800000D03*
%TO.P,J1,8,Pin_8*%
%TO.N,unconnected-(J1-Pin_8-Pad8)*%
X111480000Y-110800000D03*
%TO.P,J1,9,Pin_9*%
%TO.N,unconnected-(J1-Pin_9-Pad9)*%
X108940000Y-110800000D03*
%TO.P,J1,10,Pin_10*%
%TO.N,unconnected-(J1-Pin_10-Pad10)*%
X106400000Y-110800000D03*
%TO.P,J1,11,Pin_11*%
%TO.N,unconnected-(J1-Pin_11-Pad11)*%
X103860000Y-110800000D03*
%TO.P,J1,12,Pin_12*%
%TO.N,unconnected-(J1-Pin_12-Pad12)*%
X101320000Y-110800000D03*
%TO.P,J1,13,Pin_13*%
%TO.N,unconnected-(J1-Pin_13-Pad13)*%
X98780000Y-110800000D03*
%TO.P,J1,14,Pin_14*%
%TO.N,GND*%
X96240000Y-110800000D03*
%TO.P,J1,15,Pin_15*%
%TO.N,unconnected-(J1-Pin_15-Pad15)*%
X93700000Y-110800000D03*
%TD*%
D16*
%TO.P,R1,2*%
%TO.N,GND*%
X105390000Y-80650000D03*
D17*
%TO.P,R1,1*%
%TO.N,Net-(De1-K)*%
X113010000Y-80650000D03*
%TD*%
D20*
%TO.P,U1,1,VI*%
%TO.N,12V+*%
X90000000Y-135000000D03*
D21*
%TO.P,U1,2,GND*%
%TO.N,GND*%
X90000000Y-137540000D03*
%TO.P,U1,3,VO*%
%TO.N,VDD*%
X90000000Y-140080000D03*
%TD*%
D12*
%TO.P,J6,1,Pin_1*%
%TO.N,Net-(J4-Pin_6)*%
X126620000Y-152400000D03*
D13*
%TO.P,J6,2,Pin_2*%
%TO.N,Net-(J4-Pin_5)*%
X121620000Y-152400000D03*
%TD*%
D10*
%TO.P,J2,1,Pin_1*%
%TO.N,Net-(J2-Pin_1)*%
X129260000Y-85420000D03*
D11*
%TO.P,J2,2,Pin_2*%
%TO.N,Net-(J2-Pin_2)*%
X126720000Y-85420000D03*
%TO.P,J2,3,Pin_3*%
%TO.N,Net-(J2-Pin_3)*%
X124180000Y-85420000D03*
%TO.P,J2,4,Pin_4*%
%TO.N,Net-(J2-Pin_4)*%
X121640000Y-85420000D03*
%TO.P,J2,5,Pin_5*%
%TO.N,Net-(J2-Pin_5)*%
X119100000Y-85420000D03*
%TO.P,J2,6,Pin_6*%
%TO.N,unconnected-(J2-Pin_6-Pad6)*%
X116560000Y-85420000D03*
%TO.P,J2,7,Pin_7*%
%TO.N,Net-(De1-A)*%
X114020000Y-85420000D03*
%TO.P,J2,8,Pin_8*%
%TO.N,Net-(De2-A)*%
X111480000Y-85420000D03*
%TO.P,J2,9,Pin_9*%
%TO.N,unconnected-(J2-Pin_9-Pad9)*%
X108940000Y-85420000D03*
%TO.P,J2,10,Pin_10*%
%TO.N,unconnected-(J2-Pin_10-Pad10)*%
X106400000Y-85420000D03*
%TO.P,J2,11,Pin_11*%
%TO.N,unconnected-(J2-Pin_11-Pad11)*%
X103860000Y-85420000D03*
%TO.P,J2,12,Pin_12*%
%TO.N,unconnected-(J2-Pin_12-Pad12)*%
X101320000Y-85420000D03*
%TO.P,J2,13,Pin_13*%
%TO.N,unconnected-(J2-Pin_13-Pad13)*%
X98780000Y-85420000D03*
%TO.P,J2,14,Pin_14*%
%TO.N,GND*%
X96240000Y-85420000D03*
%TO.P,J2,15,Pin_15*%
%TO.N,VDD*%
X93700000Y-85420000D03*
%TD*%
D22*
%TO.N,dir*%
X124180000Y-114884800D02*
X121684800Y-117380000D01*
X124180000Y-110800000D02*
X124180000Y-114884800D01*
%TO.N,step*%
X115376956Y-132425000D02*
X114360000Y-132425000D01*
X117800000Y-130001956D02*
X115376956Y-132425000D01*
X121640000Y-111960000D02*
X117800000Y-115800000D01*
X117800000Y-115800000D02*
X117800000Y-130001956D01*
X114360000Y-132425000D02*
X114300000Y-132365000D01*
X121640000Y-110800000D02*
X121640000Y-111960000D01*
%TO.N,dir*%
X119095000Y-134905000D02*
X114300000Y-134905000D01*
X121684800Y-117380000D02*
X121091573Y-117380000D01*
X121091573Y-117380000D02*
X119920000Y-118551573D01*
X119920000Y-118551573D02*
X119920000Y-134080000D01*
X119920000Y-134080000D02*
X119095000Y-134905000D01*
%TO.N,Net-(J2-Pin_4)*%
X121436800Y-85216800D02*
X121436800Y-77088800D01*
X121640000Y-85420000D02*
X121436800Y-85216800D01*
%TO.N,Net-(J2-Pin_5)*%
X119100000Y-77488800D02*
X119500000Y-77088800D01*
X119100000Y-85420000D02*
X119100000Y-77488800D01*
%TO.N,Net-(De1-K)*%
X113010000Y-80650000D02*
X113010000Y-79550000D01*
X113010000Y-80200000D02*
X113010000Y-79550000D01*
X113010000Y-79550000D02*
X113010000Y-77085000D01*
%TO.N,GND*%
X104940000Y-80650000D02*
X104845000Y-80745000D01*
X105390000Y-80650000D02*
X104940000Y-80650000D01*
X104845000Y-80745000D02*
X105390000Y-80200000D01*
X103840000Y-81750000D02*
X104845000Y-80745000D01*
X100073044Y-81750000D02*
X103840000Y-81750000D01*
X99423044Y-81100000D02*
X100073044Y-81750000D01*
%TO.N,Net-(De1-K)*%
X113010000Y-77085000D02*
X112900000Y-76975000D01*
%TO.N,Net-(J2-Pin_5)*%
X119100000Y-85420000D02*
X119500000Y-85020000D01*
%TO.N,VDD*%
X85000000Y-135000000D02*
X85000000Y-94120000D01*
X85000000Y-94120000D02*
X93700000Y-85420000D01*
X84750000Y-135250000D02*
X85000000Y-135000000D01*
X84750000Y-140000000D02*
X84750000Y-135250000D01*
%TO.N,GND*%
X88080400Y-121723600D02*
X94854000Y-114950000D01*
X88080400Y-126919600D02*
X88080400Y-121723600D01*
X90000000Y-130000000D02*
X90000000Y-128839200D01*
X90000000Y-128839200D02*
X88080400Y-126919600D01*
X89500000Y-130000000D02*
X90000000Y-130000000D01*
X87250000Y-132250000D02*
X89500000Y-130000000D01*
X87250000Y-137702500D02*
X87250000Y-132250000D01*
X90000000Y-137540000D02*
X90000000Y-137702500D01*
X90000000Y-137702500D02*
X87250000Y-137702500D01*
%TO.N,VDD*%
X90000000Y-140080000D02*
X84830000Y-140080000D01*
X84830000Y-140080000D02*
X84750000Y-140000000D01*
X84750000Y-158178000D02*
X84750000Y-140000000D01*
%TO.N,12V+*%
X95913800Y-129086200D02*
X90830400Y-124002800D01*
X98348800Y-131521200D02*
X95913800Y-129086200D01*
X90000000Y-135000000D02*
X95913800Y-129086200D01*
%TO.N,GND*%
X93348800Y-139559388D02*
X91166912Y-137377500D01*
X93348800Y-152552400D02*
X93348800Y-139559388D01*
%TO.N,Net-(J4-Pin_5)*%
X121620000Y-153870000D02*
X121620000Y-152400000D01*
X135700000Y-149790000D02*
X129360000Y-156130000D01*
X135750000Y-146098427D02*
X135700000Y-146148427D01*
X123880000Y-156130000D02*
X121620000Y-153870000D01*
X135750000Y-130843146D02*
X135750000Y-146098427D01*
X132191855Y-127285000D02*
X135750000Y-130843146D01*
X135700000Y-146148427D02*
X135700000Y-149790000D01*
X129360000Y-156130000D02*
X123880000Y-156130000D01*
X127000000Y-127285000D02*
X132191855Y-127285000D01*
%TO.N,Net-(De2-K)*%
X102210000Y-77110000D02*
X102000000Y-76900000D01*
X102210000Y-79300000D02*
X102210000Y-77110000D01*
X101875000Y-76775000D02*
X102000000Y-76900000D01*
X97400000Y-76775000D02*
X101875000Y-76775000D01*
%TO.N,Net-(De2-A)*%
X97400000Y-74235000D02*
X104735000Y-74235000D01*
X104800000Y-74300000D02*
X111480000Y-80980000D01*
X104735000Y-74235000D02*
X104800000Y-74300000D01*
%TO.N,Net-(De1-A)*%
X114020000Y-84280000D02*
X116300000Y-82000000D01*
X114020000Y-85420000D02*
X114020000Y-84280000D01*
X116300000Y-74500000D02*
X116300000Y-82400000D01*
X116235000Y-74435000D02*
X116300000Y-74500000D01*
X112900000Y-74435000D02*
X116235000Y-74435000D01*
%TO.N,Net-(De1-K)*%
X113010000Y-80390000D02*
X113000000Y-80400000D01*
X113010000Y-80390000D02*
X113010000Y-80200000D01*
%TO.N,GND*%
X94590000Y-79300000D02*
X94590000Y-82633044D01*
X94590000Y-82633044D02*
X96240000Y-84283044D01*
X96240000Y-84283044D02*
X96240000Y-85420000D01*
X99423044Y-81100000D02*
X96240000Y-84283044D01*
%TO.N,Net-(De2-A)*%
X111480000Y-80980000D02*
X111480000Y-85420000D01*
%TO.N,Net-(J4-Pin_3)*%
X132768709Y-122205000D02*
X127000000Y-122205000D01*
X139400000Y-128836290D02*
X132768709Y-122205000D01*
X132258428Y-160130000D02*
X139400000Y-152988428D01*
X139400000Y-152988428D02*
X139400000Y-128836290D01*
X106560000Y-154524945D02*
X112165055Y-160130000D01*
X108165055Y-148670000D02*
X106560000Y-150275055D01*
X110570000Y-148670000D02*
X108165055Y-148670000D01*
X106560000Y-150275055D02*
X106560000Y-154524945D01*
X114300000Y-152400000D02*
X110570000Y-148670000D01*
X112165055Y-160130000D02*
X132258428Y-160130000D01*
%TO.N,Net-(J4-Pin_4)*%
X137400000Y-152160000D02*
X131430000Y-158130000D01*
X109300000Y-153870000D02*
X109300000Y-152400000D01*
X137400000Y-129664717D02*
X137400000Y-152160000D01*
X131430000Y-158130000D02*
X113560000Y-158130000D01*
X113560000Y-158130000D02*
X109300000Y-153870000D01*
X132480283Y-124745000D02*
X137400000Y-129664717D01*
X127000000Y-124745000D02*
X132480283Y-124745000D01*
%TO.N,GND*%
X96240000Y-111816000D02*
X96240000Y-103200000D01*
X93980000Y-114076000D02*
X96240000Y-111816000D01*
%TO.N,Net-(J4-Pin_1)*%
X133300000Y-116800000D02*
X127325000Y-116800000D01*
X127325000Y-116800000D02*
X127000000Y-117125000D01*
%TO.N,VDD*%
X87172000Y-160600000D02*
X84750000Y-158178000D01*
X104560000Y-158126800D02*
X102086800Y-160600000D01*
X108413828Y-145592800D02*
X104560000Y-149446628D01*
X104560000Y-149446628D02*
X104560000Y-158126800D01*
X131750000Y-141500000D02*
X127657200Y-145592800D01*
X102086800Y-160600000D02*
X87172000Y-160600000D01*
X131750000Y-132500000D02*
X131750000Y-141500000D01*
X128500000Y-132500000D02*
X131750000Y-132500000D01*
X127657200Y-145592800D02*
X108413828Y-145592800D01*
X127000000Y-132365000D02*
X128365000Y-132365000D01*
X128365000Y-132365000D02*
X128500000Y-132500000D01*
%TO.N,Net-(J2-Pin_1)*%
X129056800Y-77088800D02*
X129056800Y-85216800D01*
X129056800Y-85216800D02*
X129260000Y-85420000D01*
%TO.N,Net-(J2-Pin_2)*%
X126516800Y-85216800D02*
X126720000Y-85420000D01*
X126516800Y-77088800D02*
X126516800Y-85216800D01*
%TO.N,Net-(J2-Pin_3)*%
X123976800Y-85216800D02*
X124180000Y-85420000D01*
X123976800Y-77088800D02*
X123976800Y-85216800D01*
%TO.N,Net-(J2-Pin_5)*%
X118896800Y-85216800D02*
X119100000Y-85420000D01*
%TO.N,12V+*%
X98348800Y-152552400D02*
X98348800Y-131521200D01*
%TO.N,GND*%
X107506800Y-122326400D02*
X111700000Y-122326400D01*
X105830400Y-124002800D02*
X107506800Y-122326400D01*
X111700000Y-136140000D02*
X111700000Y-122326400D01*
X111700000Y-122326400D02*
X111700000Y-121860000D01*
%TO.N,Net-(J3-Pin_5)*%
X114300000Y-127285000D02*
X114300000Y-129825000D01*
%TO.N,step*%
X114300000Y-132365000D02*
X115742200Y-132365000D01*
%TO.N,GND*%
X93980000Y-114076000D02*
X94854000Y-114950000D01*
X104790000Y-114950000D02*
X94854000Y-114950000D01*
X111700000Y-121860000D02*
X104790000Y-114950000D01*
X113065000Y-137505000D02*
X111700000Y-136140000D01*
X127000000Y-134905000D02*
X124400000Y-137505000D01*
X124400000Y-137505000D02*
X113065000Y-137505000D01*
X96240000Y-85420000D02*
X96240000Y-103200000D01*
%TO.N,Net-(J4-Pin_6)*%
X133750000Y-145270000D02*
X126620000Y-152400000D01*
X133750000Y-131671573D02*
X133750000Y-145270000D01*
X131903427Y-129825000D02*
X133750000Y-131671573D01*
X127000000Y-129825000D02*
X131903427Y-129825000D01*
%TO.N,GND*%
X122205000Y-119665000D02*
X127000000Y-119665000D01*
X121920000Y-119380000D02*
X122205000Y-119665000D01*
X122205000Y-134905000D02*
X121920000Y-134620000D01*
X121920000Y-134620000D02*
X121920000Y-119380000D01*
X127000000Y-134905000D02*
X122205000Y-134905000D01*
%TD*%
M02*
