%TF.GenerationSoftware,KiCad,Pcbnew,7.0.5*%
%TF.CreationDate,2023-06-26T04:39:27-05:00*%
%TF.ProjectId,ProyectoAPMKicadAutoroute,50726f79-6563-4746-9f41-504d4b696361,rev?*%
%TF.SameCoordinates,Original*%
%TF.FileFunction,Legend,Top*%
%TF.FilePolarity,Positive*%
%FSLAX46Y46*%
G04 Gerber Fmt 4.6, Leading zero omitted, Abs format (unit mm)*
G04 Created by KiCad (PCBNEW 7.0.5) date 2023-06-26 04:39:27*
%MOMM*%
%LPD*%
G01*
G04 APERTURE LIST*
%ADD10C,0.150000*%
%ADD11C,0.120000*%
G04 APERTURE END LIST*
D10*
%TO.C,J9*%
X132966666Y-113924819D02*
X132966666Y-114639104D01*
X132966666Y-114639104D02*
X132919047Y-114781961D01*
X132919047Y-114781961D02*
X132823809Y-114877200D01*
X132823809Y-114877200D02*
X132680952Y-114924819D01*
X132680952Y-114924819D02*
X132585714Y-114924819D01*
X133490476Y-114924819D02*
X133680952Y-114924819D01*
X133680952Y-114924819D02*
X133776190Y-114877200D01*
X133776190Y-114877200D02*
X133823809Y-114829580D01*
X133823809Y-114829580D02*
X133919047Y-114686723D01*
X133919047Y-114686723D02*
X133966666Y-114496247D01*
X133966666Y-114496247D02*
X133966666Y-114115295D01*
X133966666Y-114115295D02*
X133919047Y-114020057D01*
X133919047Y-114020057D02*
X133871428Y-113972438D01*
X133871428Y-113972438D02*
X133776190Y-113924819D01*
X133776190Y-113924819D02*
X133585714Y-113924819D01*
X133585714Y-113924819D02*
X133490476Y-113972438D01*
X133490476Y-113972438D02*
X133442857Y-114020057D01*
X133442857Y-114020057D02*
X133395238Y-114115295D01*
X133395238Y-114115295D02*
X133395238Y-114353390D01*
X133395238Y-114353390D02*
X133442857Y-114448628D01*
X133442857Y-114448628D02*
X133490476Y-114496247D01*
X133490476Y-114496247D02*
X133585714Y-114543866D01*
X133585714Y-114543866D02*
X133776190Y-114543866D01*
X133776190Y-114543866D02*
X133871428Y-114496247D01*
X133871428Y-114496247D02*
X133919047Y-114448628D01*
X133919047Y-114448628D02*
X133966666Y-114353390D01*
%TO.C,J8*%
X131444819Y-77422133D02*
X132159104Y-77422133D01*
X132159104Y-77422133D02*
X132301961Y-77469752D01*
X132301961Y-77469752D02*
X132397200Y-77564990D01*
X132397200Y-77564990D02*
X132444819Y-77707847D01*
X132444819Y-77707847D02*
X132444819Y-77803085D01*
X131873390Y-76803085D02*
X131825771Y-76898323D01*
X131825771Y-76898323D02*
X131778152Y-76945942D01*
X131778152Y-76945942D02*
X131682914Y-76993561D01*
X131682914Y-76993561D02*
X131635295Y-76993561D01*
X131635295Y-76993561D02*
X131540057Y-76945942D01*
X131540057Y-76945942D02*
X131492438Y-76898323D01*
X131492438Y-76898323D02*
X131444819Y-76803085D01*
X131444819Y-76803085D02*
X131444819Y-76612609D01*
X131444819Y-76612609D02*
X131492438Y-76517371D01*
X131492438Y-76517371D02*
X131540057Y-76469752D01*
X131540057Y-76469752D02*
X131635295Y-76422133D01*
X131635295Y-76422133D02*
X131682914Y-76422133D01*
X131682914Y-76422133D02*
X131778152Y-76469752D01*
X131778152Y-76469752D02*
X131825771Y-76517371D01*
X131825771Y-76517371D02*
X131873390Y-76612609D01*
X131873390Y-76612609D02*
X131873390Y-76803085D01*
X131873390Y-76803085D02*
X131921009Y-76898323D01*
X131921009Y-76898323D02*
X131968628Y-76945942D01*
X131968628Y-76945942D02*
X132063866Y-76993561D01*
X132063866Y-76993561D02*
X132254342Y-76993561D01*
X132254342Y-76993561D02*
X132349580Y-76945942D01*
X132349580Y-76945942D02*
X132397200Y-76898323D01*
X132397200Y-76898323D02*
X132444819Y-76803085D01*
X132444819Y-76803085D02*
X132444819Y-76612609D01*
X132444819Y-76612609D02*
X132397200Y-76517371D01*
X132397200Y-76517371D02*
X132349580Y-76469752D01*
X132349580Y-76469752D02*
X132254342Y-76422133D01*
X132254342Y-76422133D02*
X132063866Y-76422133D01*
X132063866Y-76422133D02*
X131968628Y-76469752D01*
X131968628Y-76469752D02*
X131921009Y-76517371D01*
X131921009Y-76517371D02*
X131873390Y-76612609D01*
%TO.C,J7*%
X99935466Y-158997219D02*
X99935466Y-159711504D01*
X99935466Y-159711504D02*
X99887847Y-159854361D01*
X99887847Y-159854361D02*
X99792609Y-159949600D01*
X99792609Y-159949600D02*
X99649752Y-159997219D01*
X99649752Y-159997219D02*
X99554514Y-159997219D01*
X100316419Y-158997219D02*
X100983085Y-158997219D01*
X100983085Y-158997219D02*
X100554514Y-159997219D01*
%TO.C,C1*%
X98163733Y-120242380D02*
X98116114Y-120290000D01*
X98116114Y-120290000D02*
X97973257Y-120337619D01*
X97973257Y-120337619D02*
X97878019Y-120337619D01*
X97878019Y-120337619D02*
X97735162Y-120290000D01*
X97735162Y-120290000D02*
X97639924Y-120194761D01*
X97639924Y-120194761D02*
X97592305Y-120099523D01*
X97592305Y-120099523D02*
X97544686Y-119909047D01*
X97544686Y-119909047D02*
X97544686Y-119766190D01*
X97544686Y-119766190D02*
X97592305Y-119575714D01*
X97592305Y-119575714D02*
X97639924Y-119480476D01*
X97639924Y-119480476D02*
X97735162Y-119385238D01*
X97735162Y-119385238D02*
X97878019Y-119337619D01*
X97878019Y-119337619D02*
X97973257Y-119337619D01*
X97973257Y-119337619D02*
X98116114Y-119385238D01*
X98116114Y-119385238D02*
X98163733Y-119432857D01*
X99116114Y-120337619D02*
X98544686Y-120337619D01*
X98830400Y-120337619D02*
X98830400Y-119337619D01*
X98830400Y-119337619D02*
X98735162Y-119480476D01*
X98735162Y-119480476D02*
X98639924Y-119575714D01*
X98639924Y-119575714D02*
X98544686Y-119623333D01*
%TO.C,R2*%
X98233333Y-81674819D02*
X97900000Y-81198628D01*
X97661905Y-81674819D02*
X97661905Y-80674819D01*
X97661905Y-80674819D02*
X98042857Y-80674819D01*
X98042857Y-80674819D02*
X98138095Y-80722438D01*
X98138095Y-80722438D02*
X98185714Y-80770057D01*
X98185714Y-80770057D02*
X98233333Y-80865295D01*
X98233333Y-80865295D02*
X98233333Y-81008152D01*
X98233333Y-81008152D02*
X98185714Y-81103390D01*
X98185714Y-81103390D02*
X98138095Y-81151009D01*
X98138095Y-81151009D02*
X98042857Y-81198628D01*
X98042857Y-81198628D02*
X97661905Y-81198628D01*
X98614286Y-80770057D02*
X98661905Y-80722438D01*
X98661905Y-80722438D02*
X98757143Y-80674819D01*
X98757143Y-80674819D02*
X98995238Y-80674819D01*
X98995238Y-80674819D02*
X99090476Y-80722438D01*
X99090476Y-80722438D02*
X99138095Y-80770057D01*
X99138095Y-80770057D02*
X99185714Y-80865295D01*
X99185714Y-80865295D02*
X99185714Y-80960533D01*
X99185714Y-80960533D02*
X99138095Y-81103390D01*
X99138095Y-81103390D02*
X98566667Y-81674819D01*
X98566667Y-81674819D02*
X99185714Y-81674819D01*
%TO.C,De2*%
X94894819Y-76671666D02*
X93894819Y-76671666D01*
X93894819Y-76671666D02*
X93894819Y-76433571D01*
X93894819Y-76433571D02*
X93942438Y-76290714D01*
X93942438Y-76290714D02*
X94037676Y-76195476D01*
X94037676Y-76195476D02*
X94132914Y-76147857D01*
X94132914Y-76147857D02*
X94323390Y-76100238D01*
X94323390Y-76100238D02*
X94466247Y-76100238D01*
X94466247Y-76100238D02*
X94656723Y-76147857D01*
X94656723Y-76147857D02*
X94751961Y-76195476D01*
X94751961Y-76195476D02*
X94847200Y-76290714D01*
X94847200Y-76290714D02*
X94894819Y-76433571D01*
X94894819Y-76433571D02*
X94894819Y-76671666D01*
X94847200Y-75290714D02*
X94894819Y-75385952D01*
X94894819Y-75385952D02*
X94894819Y-75576428D01*
X94894819Y-75576428D02*
X94847200Y-75671666D01*
X94847200Y-75671666D02*
X94751961Y-75719285D01*
X94751961Y-75719285D02*
X94371009Y-75719285D01*
X94371009Y-75719285D02*
X94275771Y-75671666D01*
X94275771Y-75671666D02*
X94228152Y-75576428D01*
X94228152Y-75576428D02*
X94228152Y-75385952D01*
X94228152Y-75385952D02*
X94275771Y-75290714D01*
X94275771Y-75290714D02*
X94371009Y-75243095D01*
X94371009Y-75243095D02*
X94466247Y-75243095D01*
X94466247Y-75243095D02*
X94561485Y-75719285D01*
X93990057Y-74862142D02*
X93942438Y-74814523D01*
X93942438Y-74814523D02*
X93894819Y-74719285D01*
X93894819Y-74719285D02*
X93894819Y-74481190D01*
X93894819Y-74481190D02*
X93942438Y-74385952D01*
X93942438Y-74385952D02*
X93990057Y-74338333D01*
X93990057Y-74338333D02*
X94085295Y-74290714D01*
X94085295Y-74290714D02*
X94180533Y-74290714D01*
X94180533Y-74290714D02*
X94323390Y-74338333D01*
X94323390Y-74338333D02*
X94894819Y-74909761D01*
X94894819Y-74909761D02*
X94894819Y-74290714D01*
%TO.C,J4*%
X126666666Y-113809819D02*
X126666666Y-114524104D01*
X126666666Y-114524104D02*
X126619047Y-114666961D01*
X126619047Y-114666961D02*
X126523809Y-114762200D01*
X126523809Y-114762200D02*
X126380952Y-114809819D01*
X126380952Y-114809819D02*
X126285714Y-114809819D01*
X127571428Y-114143152D02*
X127571428Y-114809819D01*
X127333333Y-113762200D02*
X127095238Y-114476485D01*
X127095238Y-114476485D02*
X127714285Y-114476485D01*
%TO.C,J3*%
X113966666Y-113809819D02*
X113966666Y-114524104D01*
X113966666Y-114524104D02*
X113919047Y-114666961D01*
X113919047Y-114666961D02*
X113823809Y-114762200D01*
X113823809Y-114762200D02*
X113680952Y-114809819D01*
X113680952Y-114809819D02*
X113585714Y-114809819D01*
X114347619Y-113809819D02*
X114966666Y-113809819D01*
X114966666Y-113809819D02*
X114633333Y-114190771D01*
X114633333Y-114190771D02*
X114776190Y-114190771D01*
X114776190Y-114190771D02*
X114871428Y-114238390D01*
X114871428Y-114238390D02*
X114919047Y-114286009D01*
X114919047Y-114286009D02*
X114966666Y-114381247D01*
X114966666Y-114381247D02*
X114966666Y-114619342D01*
X114966666Y-114619342D02*
X114919047Y-114714580D01*
X114919047Y-114714580D02*
X114871428Y-114762200D01*
X114871428Y-114762200D02*
X114776190Y-114809819D01*
X114776190Y-114809819D02*
X114490476Y-114809819D01*
X114490476Y-114809819D02*
X114395238Y-114762200D01*
X114395238Y-114762200D02*
X114347619Y-114714580D01*
%TO.C,De1*%
X110394819Y-76871666D02*
X109394819Y-76871666D01*
X109394819Y-76871666D02*
X109394819Y-76633571D01*
X109394819Y-76633571D02*
X109442438Y-76490714D01*
X109442438Y-76490714D02*
X109537676Y-76395476D01*
X109537676Y-76395476D02*
X109632914Y-76347857D01*
X109632914Y-76347857D02*
X109823390Y-76300238D01*
X109823390Y-76300238D02*
X109966247Y-76300238D01*
X109966247Y-76300238D02*
X110156723Y-76347857D01*
X110156723Y-76347857D02*
X110251961Y-76395476D01*
X110251961Y-76395476D02*
X110347200Y-76490714D01*
X110347200Y-76490714D02*
X110394819Y-76633571D01*
X110394819Y-76633571D02*
X110394819Y-76871666D01*
X110347200Y-75490714D02*
X110394819Y-75585952D01*
X110394819Y-75585952D02*
X110394819Y-75776428D01*
X110394819Y-75776428D02*
X110347200Y-75871666D01*
X110347200Y-75871666D02*
X110251961Y-75919285D01*
X110251961Y-75919285D02*
X109871009Y-75919285D01*
X109871009Y-75919285D02*
X109775771Y-75871666D01*
X109775771Y-75871666D02*
X109728152Y-75776428D01*
X109728152Y-75776428D02*
X109728152Y-75585952D01*
X109728152Y-75585952D02*
X109775771Y-75490714D01*
X109775771Y-75490714D02*
X109871009Y-75443095D01*
X109871009Y-75443095D02*
X109966247Y-75443095D01*
X109966247Y-75443095D02*
X110061485Y-75919285D01*
X110394819Y-74490714D02*
X110394819Y-75062142D01*
X110394819Y-74776428D02*
X109394819Y-74776428D01*
X109394819Y-74776428D02*
X109537676Y-74871666D01*
X109537676Y-74871666D02*
X109632914Y-74966904D01*
X109632914Y-74966904D02*
X109680533Y-75062142D01*
%TO.C,J5*%
X115886666Y-158844819D02*
X115886666Y-159559104D01*
X115886666Y-159559104D02*
X115839047Y-159701961D01*
X115839047Y-159701961D02*
X115743809Y-159797200D01*
X115743809Y-159797200D02*
X115600952Y-159844819D01*
X115600952Y-159844819D02*
X115505714Y-159844819D01*
X116839047Y-158844819D02*
X116362857Y-158844819D01*
X116362857Y-158844819D02*
X116315238Y-159321009D01*
X116315238Y-159321009D02*
X116362857Y-159273390D01*
X116362857Y-159273390D02*
X116458095Y-159225771D01*
X116458095Y-159225771D02*
X116696190Y-159225771D01*
X116696190Y-159225771D02*
X116791428Y-159273390D01*
X116791428Y-159273390D02*
X116839047Y-159321009D01*
X116839047Y-159321009D02*
X116886666Y-159416247D01*
X116886666Y-159416247D02*
X116886666Y-159654342D01*
X116886666Y-159654342D02*
X116839047Y-159749580D01*
X116839047Y-159749580D02*
X116791428Y-159797200D01*
X116791428Y-159797200D02*
X116696190Y-159844819D01*
X116696190Y-159844819D02*
X116458095Y-159844819D01*
X116458095Y-159844819D02*
X116362857Y-159797200D01*
X116362857Y-159797200D02*
X116315238Y-159749580D01*
%TO.C,J1*%
X131484819Y-111133333D02*
X132199104Y-111133333D01*
X132199104Y-111133333D02*
X132341961Y-111180952D01*
X132341961Y-111180952D02*
X132437200Y-111276190D01*
X132437200Y-111276190D02*
X132484819Y-111419047D01*
X132484819Y-111419047D02*
X132484819Y-111514285D01*
X132484819Y-110133333D02*
X132484819Y-110704761D01*
X132484819Y-110419047D02*
X131484819Y-110419047D01*
X131484819Y-110419047D02*
X131627676Y-110514285D01*
X131627676Y-110514285D02*
X131722914Y-110609523D01*
X131722914Y-110609523D02*
X131770533Y-110704761D01*
%TO.C,R1*%
X109033333Y-83024819D02*
X108700000Y-82548628D01*
X108461905Y-83024819D02*
X108461905Y-82024819D01*
X108461905Y-82024819D02*
X108842857Y-82024819D01*
X108842857Y-82024819D02*
X108938095Y-82072438D01*
X108938095Y-82072438D02*
X108985714Y-82120057D01*
X108985714Y-82120057D02*
X109033333Y-82215295D01*
X109033333Y-82215295D02*
X109033333Y-82358152D01*
X109033333Y-82358152D02*
X108985714Y-82453390D01*
X108985714Y-82453390D02*
X108938095Y-82501009D01*
X108938095Y-82501009D02*
X108842857Y-82548628D01*
X108842857Y-82548628D02*
X108461905Y-82548628D01*
X109985714Y-83024819D02*
X109414286Y-83024819D01*
X109700000Y-83024819D02*
X109700000Y-82024819D01*
X109700000Y-82024819D02*
X109604762Y-82167676D01*
X109604762Y-82167676D02*
X109509524Y-82262914D01*
X109509524Y-82262914D02*
X109414286Y-82310533D01*
%TO.C,U1*%
X110034819Y-138301904D02*
X110844342Y-138301904D01*
X110844342Y-138301904D02*
X110939580Y-138254285D01*
X110939580Y-138254285D02*
X110987200Y-138206666D01*
X110987200Y-138206666D02*
X111034819Y-138111428D01*
X111034819Y-138111428D02*
X111034819Y-137920952D01*
X111034819Y-137920952D02*
X110987200Y-137825714D01*
X110987200Y-137825714D02*
X110939580Y-137778095D01*
X110939580Y-137778095D02*
X110844342Y-137730476D01*
X110844342Y-137730476D02*
X110034819Y-137730476D01*
X111034819Y-136730476D02*
X111034819Y-137301904D01*
X111034819Y-137016190D02*
X110034819Y-137016190D01*
X110034819Y-137016190D02*
X110177676Y-137111428D01*
X110177676Y-137111428D02*
X110272914Y-137206666D01*
X110272914Y-137206666D02*
X110320533Y-137301904D01*
%TO.C,J6*%
X128206666Y-158844819D02*
X128206666Y-159559104D01*
X128206666Y-159559104D02*
X128159047Y-159701961D01*
X128159047Y-159701961D02*
X128063809Y-159797200D01*
X128063809Y-159797200D02*
X127920952Y-159844819D01*
X127920952Y-159844819D02*
X127825714Y-159844819D01*
X129111428Y-158844819D02*
X128920952Y-158844819D01*
X128920952Y-158844819D02*
X128825714Y-158892438D01*
X128825714Y-158892438D02*
X128778095Y-158940057D01*
X128778095Y-158940057D02*
X128682857Y-159082914D01*
X128682857Y-159082914D02*
X128635238Y-159273390D01*
X128635238Y-159273390D02*
X128635238Y-159654342D01*
X128635238Y-159654342D02*
X128682857Y-159749580D01*
X128682857Y-159749580D02*
X128730476Y-159797200D01*
X128730476Y-159797200D02*
X128825714Y-159844819D01*
X128825714Y-159844819D02*
X129016190Y-159844819D01*
X129016190Y-159844819D02*
X129111428Y-159797200D01*
X129111428Y-159797200D02*
X129159047Y-159749580D01*
X129159047Y-159749580D02*
X129206666Y-159654342D01*
X129206666Y-159654342D02*
X129206666Y-159416247D01*
X129206666Y-159416247D02*
X129159047Y-159321009D01*
X129159047Y-159321009D02*
X129111428Y-159273390D01*
X129111428Y-159273390D02*
X129016190Y-159225771D01*
X129016190Y-159225771D02*
X128825714Y-159225771D01*
X128825714Y-159225771D02*
X128730476Y-159273390D01*
X128730476Y-159273390D02*
X128682857Y-159321009D01*
X128682857Y-159321009D02*
X128635238Y-159416247D01*
%TO.C,J2*%
X131484819Y-85753333D02*
X132199104Y-85753333D01*
X132199104Y-85753333D02*
X132341961Y-85800952D01*
X132341961Y-85800952D02*
X132437200Y-85896190D01*
X132437200Y-85896190D02*
X132484819Y-86039047D01*
X132484819Y-86039047D02*
X132484819Y-86134285D01*
X131580057Y-85324761D02*
X131532438Y-85277142D01*
X131532438Y-85277142D02*
X131484819Y-85181904D01*
X131484819Y-85181904D02*
X131484819Y-84943809D01*
X131484819Y-84943809D02*
X131532438Y-84848571D01*
X131532438Y-84848571D02*
X131580057Y-84800952D01*
X131580057Y-84800952D02*
X131675295Y-84753333D01*
X131675295Y-84753333D02*
X131770533Y-84753333D01*
X131770533Y-84753333D02*
X131913390Y-84800952D01*
X131913390Y-84800952D02*
X132484819Y-85372380D01*
X132484819Y-85372380D02*
X132484819Y-84753333D01*
D11*
%TO.C,J9*%
X131970000Y-115470000D02*
X133300000Y-115470000D01*
X131970000Y-118070000D02*
X134630000Y-118070000D01*
X131970000Y-118130000D02*
X134630000Y-118130000D01*
X134630000Y-118070000D02*
X134630000Y-118130000D01*
X131970000Y-118070000D02*
X131970000Y-118130000D01*
X131970000Y-116800000D02*
X131970000Y-115470000D01*
%TO.C,J8*%
X128390000Y-78418800D02*
X118170000Y-78418800D01*
X130990000Y-75758800D02*
X130990000Y-77088800D01*
X128390000Y-75758800D02*
X118170000Y-75758800D01*
X118170000Y-75758800D02*
X118170000Y-78418800D01*
X128390000Y-75758800D02*
X128390000Y-78418800D01*
X129660000Y-75758800D02*
X130990000Y-75758800D01*
%TO.C,J7*%
X90148800Y-146952400D02*
X90148800Y-148852400D01*
X90648800Y-146252400D02*
X90648800Y-147202400D01*
X90648800Y-154052400D02*
X90148800Y-153752400D01*
X90648800Y-147202400D02*
X90148800Y-146952400D01*
X90648800Y-148652400D02*
X90648800Y-154052400D01*
X100998800Y-158852400D02*
X100998800Y-146252400D01*
X90148800Y-158852400D02*
X100998800Y-158852400D01*
X90148800Y-153752400D02*
X90148800Y-158852400D01*
X90148800Y-148852400D02*
X90148800Y-148902400D01*
X100998800Y-146252400D02*
X90648800Y-146252400D01*
X90148800Y-148902400D02*
X90648800Y-148652400D01*
%TO.C,C1*%
X92210400Y-121052800D02*
X92210400Y-122552800D01*
X95460400Y-126372800D02*
X96210400Y-127122800D01*
X93210400Y-127122800D02*
X94710400Y-127122800D01*
X103450400Y-120882800D02*
X103450400Y-127122800D01*
X95460400Y-121632800D02*
X96210400Y-120882800D01*
X93210400Y-120882800D02*
X93210400Y-127122800D01*
X94710400Y-120882800D02*
X95460400Y-121632800D01*
X93210400Y-120882800D02*
X94710400Y-120882800D01*
X104590400Y-124002800D02*
X103450400Y-124002800D01*
X92070400Y-124002800D02*
X93210400Y-124002800D01*
X96210400Y-120882800D02*
X103450400Y-120882800D01*
X96210400Y-127122800D02*
X103450400Y-127122800D01*
X91460400Y-121802800D02*
X92960400Y-121802800D01*
X94710400Y-127122800D02*
X95460400Y-126372800D01*
%TO.C,R2*%
X101270000Y-79300000D02*
X100320000Y-79300000D01*
X100320000Y-80220000D02*
X100320000Y-78380000D01*
X95530000Y-79300000D02*
X96480000Y-79300000D01*
X100320000Y-78380000D02*
X96480000Y-78380000D01*
X96480000Y-80220000D02*
X100320000Y-80220000D01*
X96480000Y-78380000D02*
X96480000Y-80220000D01*
%TO.C,De2*%
X98480000Y-77065000D02*
X98636000Y-77065000D01*
X96164000Y-77065000D02*
X96320000Y-77065000D01*
X98479999Y-76545960D02*
G75*
G03*
X98479836Y-74463871I-1079999J1040960D01*
G01*
X96321392Y-73832666D02*
G75*
G03*
X96164485Y-77064999I1078608J-1672334D01*
G01*
X98635515Y-77064999D02*
G75*
G03*
X98478608Y-73832666I-1235515J1559999D01*
G01*
X96320164Y-74463871D02*
G75*
G03*
X96320001Y-76545960I1079836J-1041129D01*
G01*
%TO.C,J4*%
X125670000Y-118395000D02*
X125670000Y-136235000D01*
X125670000Y-118395000D02*
X128330000Y-118395000D01*
X125670000Y-136235000D02*
X128330000Y-136235000D01*
X127000000Y-115795000D02*
X128330000Y-115795000D01*
X128330000Y-115795000D02*
X128330000Y-117125000D01*
X128330000Y-118395000D02*
X128330000Y-136235000D01*
%TO.C,J3*%
X112970000Y-118395000D02*
X112970000Y-136235000D01*
X112970000Y-118395000D02*
X115630000Y-118395000D01*
X112970000Y-136235000D02*
X115630000Y-136235000D01*
X114300000Y-115795000D02*
X115630000Y-115795000D01*
X115630000Y-115795000D02*
X115630000Y-117125000D01*
X115630000Y-118395000D02*
X115630000Y-136235000D01*
%TO.C,De1*%
X114135515Y-77264999D02*
G75*
G03*
X113978608Y-74032666I-1235515J1559999D01*
G01*
X113979999Y-76745960D02*
G75*
G03*
X113979836Y-74663871I-1079999J1040960D01*
G01*
X111820164Y-74663871D02*
G75*
G03*
X111820001Y-76745960I1079836J-1041129D01*
G01*
X111821392Y-74032666D02*
G75*
G03*
X111664485Y-77264999I1078608J-1672334D01*
G01*
X113980000Y-77265000D02*
X114136000Y-77265000D01*
X111664000Y-77265000D02*
X111820000Y-77265000D01*
%TO.C,J5*%
X116950000Y-158700000D02*
X116950000Y-146100000D01*
X116950000Y-146100000D02*
X106600000Y-146100000D01*
X106600000Y-153900000D02*
X106100000Y-153600000D01*
X106600000Y-148500000D02*
X106600000Y-153900000D01*
X106600000Y-147050000D02*
X106100000Y-146800000D01*
X106600000Y-146100000D02*
X106600000Y-147050000D01*
X106100000Y-158700000D02*
X116950000Y-158700000D01*
X106100000Y-153600000D02*
X106100000Y-158700000D01*
X106100000Y-148750000D02*
X106600000Y-148500000D01*
X106100000Y-148700000D02*
X106100000Y-148750000D01*
X106100000Y-146800000D02*
X106100000Y-148700000D01*
%TO.C,J1*%
X127990000Y-109470000D02*
X92370000Y-109470000D01*
X127990000Y-109470000D02*
X127990000Y-112130000D01*
X92370000Y-109470000D02*
X92370000Y-112130000D01*
X130590000Y-110800000D02*
X130590000Y-112130000D01*
X130590000Y-112130000D02*
X129260000Y-112130000D01*
X127990000Y-112130000D02*
X92370000Y-112130000D01*
%TO.C,R1*%
X106330000Y-80650000D02*
X107280000Y-80650000D01*
X107280000Y-79730000D02*
X107280000Y-81570000D01*
X107280000Y-81570000D02*
X111120000Y-81570000D01*
X111120000Y-79730000D02*
X107280000Y-79730000D01*
X111120000Y-81570000D02*
X111120000Y-79730000D01*
X112070000Y-80650000D02*
X111120000Y-80650000D01*
%TO.C,U1*%
X109580000Y-132420000D02*
X93690000Y-132420000D01*
X109580000Y-132420000D02*
X109580000Y-142660000D01*
X93690000Y-132420000D02*
X93690000Y-142660000D01*
X93690000Y-135000000D02*
X91150000Y-135000000D01*
X93690000Y-137540000D02*
X91150000Y-137540000D01*
X93690000Y-140080000D02*
X91150000Y-140080000D01*
X109580000Y-142660000D02*
X93690000Y-142660000D01*
%TO.C,J6*%
X129270000Y-158700000D02*
X129270000Y-146100000D01*
X129270000Y-146100000D02*
X118920000Y-146100000D01*
X118920000Y-153900000D02*
X118420000Y-153600000D01*
X118920000Y-148500000D02*
X118920000Y-153900000D01*
X118920000Y-147050000D02*
X118420000Y-146800000D01*
X118920000Y-146100000D02*
X118920000Y-147050000D01*
X118420000Y-158700000D02*
X129270000Y-158700000D01*
X118420000Y-153600000D02*
X118420000Y-158700000D01*
X118420000Y-148750000D02*
X118920000Y-148500000D01*
X118420000Y-148700000D02*
X118420000Y-148750000D01*
X118420000Y-146800000D02*
X118420000Y-148700000D01*
%TO.C,J2*%
X127990000Y-84090000D02*
X92370000Y-84090000D01*
X127990000Y-84090000D02*
X127990000Y-86750000D01*
X92370000Y-84090000D02*
X92370000Y-86750000D01*
X130590000Y-85420000D02*
X130590000Y-86750000D01*
X130590000Y-86750000D02*
X129260000Y-86750000D01*
X127990000Y-86750000D02*
X92370000Y-86750000D01*
%TD*%
M02*
