%TF.GenerationSoftware,KiCad,Pcbnew,7.0.5*%
%TF.CreationDate,2023-06-26T04:39:27-05:00*%
%TF.ProjectId,ProyectoAPMKicadAutoroute,50726f79-6563-4746-9f41-504d4b696361,rev?*%
%TF.SameCoordinates,Original*%
%TF.FileFunction,Copper,L1,Top*%
%TF.FilePolarity,Positive*%
%FSLAX46Y46*%
G04 Gerber Fmt 4.6, Leading zero omitted, Abs format (unit mm)*
G04 Created by KiCad (PCBNEW 7.0.5) date 2023-06-26 04:39:27*
%MOMM*%
%LPD*%
G01*
G04 APERTURE LIST*
%TA.AperFunction,ComponentPad*%
%ADD10R,1.700000X1.700000*%
%TD*%
%TA.AperFunction,ComponentPad*%
%ADD11O,1.700000X1.700000*%
%TD*%
%TA.AperFunction,ComponentPad*%
%ADD12R,1.980000X3.960000*%
%TD*%
%TA.AperFunction,ComponentPad*%
%ADD13O,1.980000X3.960000*%
%TD*%
%TA.AperFunction,ComponentPad*%
%ADD14R,2.000000X2.000000*%
%TD*%
%TA.AperFunction,ComponentPad*%
%ADD15O,2.000000X2.000000*%
%TD*%
%TA.AperFunction,ComponentPad*%
%ADD16O,1.400000X1.400000*%
%TD*%
%TA.AperFunction,ComponentPad*%
%ADD17C,1.400000*%
%TD*%
%TA.AperFunction,ComponentPad*%
%ADD18R,1.800000X1.800000*%
%TD*%
%TA.AperFunction,ComponentPad*%
%ADD19C,1.800000*%
%TD*%
%TA.AperFunction,ComponentPad*%
%ADD20R,2.000000X1.905000*%
%TD*%
%TA.AperFunction,ComponentPad*%
%ADD21O,2.000000X1.905000*%
%TD*%
G04 APERTURE END LIST*
D10*
%TO.P,J9,1,Pin_1*%
%TO.N,Net-(J4-Pin_1)*%
X133300000Y-116800000D03*
%TD*%
%TO.P,J8,1,Pin_1*%
%TO.N,Net-(J2-Pin_1)*%
X129660000Y-77088800D03*
D11*
%TO.P,J8,2,Pin_2*%
%TO.N,Net-(J2-Pin_2)*%
X127120000Y-77088800D03*
%TO.P,J8,3,Pin_3*%
%TO.N,Net-(J2-Pin_3)*%
X124580000Y-77088800D03*
%TO.P,J8,4,Pin_4*%
%TO.N,Net-(J2-Pin_4)*%
X122040000Y-77088800D03*
%TO.P,J8,5,Pin_5*%
%TO.N,Net-(J2-Pin_5)*%
X119500000Y-77088800D03*
%TD*%
D12*
%TO.P,J7,1,Pin_1*%
%TO.N,12V+*%
X98348800Y-152552400D03*
D13*
%TO.P,J7,2,Pin_2*%
%TO.N,GND*%
X93348800Y-152552400D03*
%TD*%
D14*
%TO.P,C1,1*%
%TO.N,12V+*%
X90830400Y-124002800D03*
D15*
%TO.P,C1,2*%
%TO.N,GND*%
X105830400Y-124002800D03*
%TD*%
D16*
%TO.P,R2,2*%
%TO.N,GND*%
X94590000Y-79300000D03*
D17*
%TO.P,R2,1*%
%TO.N,Net-(De2-K)*%
X102210000Y-79300000D03*
%TD*%
D18*
%TO.P,De2,1,K*%
%TO.N,Net-(De2-K)*%
X97400000Y-76775000D03*
D19*
%TO.P,De2,2,A*%
%TO.N,Net-(De2-A)*%
X97400000Y-74235000D03*
%TD*%
D10*
%TO.P,J4,1,Pin_1*%
%TO.N,Net-(J4-Pin_1)*%
X127000000Y-117125000D03*
D11*
%TO.P,J4,2,Pin_2*%
%TO.N,GND*%
X127000000Y-119665000D03*
%TO.P,J4,3,Pin_3*%
%TO.N,Net-(J4-Pin_3)*%
X127000000Y-122205000D03*
%TO.P,J4,4,Pin_4*%
%TO.N,Net-(J4-Pin_4)*%
X127000000Y-124745000D03*
%TO.P,J4,5,Pin_5*%
%TO.N,Net-(J4-Pin_5)*%
X127000000Y-127285000D03*
%TO.P,J4,6,Pin_6*%
%TO.N,Net-(J4-Pin_6)*%
X127000000Y-129825000D03*
%TO.P,J4,7,Pin_7*%
%TO.N,VDD*%
X127000000Y-132365000D03*
%TO.P,J4,8,Pin_8*%
%TO.N,GND*%
X127000000Y-134905000D03*
%TD*%
D10*
%TO.P,J3,1,Pin_1*%
%TO.N,unconnected-(J3-Pin_1-Pad1)*%
X114300000Y-117125000D03*
D11*
%TO.P,J3,2,Pin_2*%
%TO.N,unconnected-(J3-Pin_2-Pad2)*%
X114300000Y-119665000D03*
%TO.P,J3,3,Pin_3*%
%TO.N,unconnected-(J3-Pin_3-Pad3)*%
X114300000Y-122205000D03*
%TO.P,J3,4,Pin_4*%
%TO.N,unconnected-(J3-Pin_4-Pad4)*%
X114300000Y-124745000D03*
%TO.P,J3,5,Pin_5*%
%TO.N,Net-(J3-Pin_5)*%
X114300000Y-127285000D03*
%TO.P,J3,6,Pin_6*%
X114300000Y-129825000D03*
%TO.P,J3,7,Pin_7*%
%TO.N,step*%
X114300000Y-132365000D03*
%TO.P,J3,8,Pin_8*%
%TO.N,dir*%
X114300000Y-134905000D03*
%TD*%
D19*
%TO.P,De1,2,A*%
%TO.N,Net-(De1-A)*%
X112900000Y-74435000D03*
D18*
%TO.P,De1,1,K*%
%TO.N,Net-(De1-K)*%
X112900000Y-76975000D03*
%TD*%
D12*
%TO.P,J5,1,Pin_1*%
%TO.N,Net-(J4-Pin_3)*%
X114300000Y-152400000D03*
D13*
%TO.P,J5,2,Pin_2*%
%TO.N,Net-(J4-Pin_4)*%
X109300000Y-152400000D03*
%TD*%
D10*
%TO.P,J1,1,Pin_1*%
%TO.N,unconnected-(J1-Pin_1-Pad1)*%
X129260000Y-110800000D03*
D11*
%TO.P,J1,2,Pin_2*%
%TO.N,unconnected-(J1-Pin_2-Pad2)*%
X126720000Y-110800000D03*
%TO.P,J1,3,Pin_3*%
%TO.N,dir*%
X124180000Y-110800000D03*
%TO.P,J1,4,Pin_4*%
%TO.N,step*%
X121640000Y-110800000D03*
%TO.P,J1,5,Pin_5*%
%TO.N,unconnected-(J1-Pin_5-Pad5)*%
X119100000Y-110800000D03*
%TO.P,J1,6,Pin_6*%
%TO.N,unconnected-(J1-Pin_6-Pad6)*%
X116560000Y-110800000D03*
%TO.P,J1,7,Pin_7*%
%TO.N,unconnected-(J1-Pin_7-Pad7)*%
X114020000Y-110800000D03*
%TO.P,J1,8,Pin_8*%
%TO.N,unconnected-(J1-Pin_8-Pad8)*%
X111480000Y-110800000D03*
%TO.P,J1,9,Pin_9*%
%TO.N,unconnected-(J1-Pin_9-Pad9)*%
X108940000Y-110800000D03*
%TO.P,J1,10,Pin_10*%
%TO.N,unconnected-(J1-Pin_10-Pad10)*%
X106400000Y-110800000D03*
%TO.P,J1,11,Pin_11*%
%TO.N,unconnected-(J1-Pin_11-Pad11)*%
X103860000Y-110800000D03*
%TO.P,J1,12,Pin_12*%
%TO.N,unconnected-(J1-Pin_12-Pad12)*%
X101320000Y-110800000D03*
%TO.P,J1,13,Pin_13*%
%TO.N,unconnected-(J1-Pin_13-Pad13)*%
X98780000Y-110800000D03*
%TO.P,J1,14,Pin_14*%
%TO.N,GND*%
X96240000Y-110800000D03*
%TO.P,J1,15,Pin_15*%
%TO.N,unconnected-(J1-Pin_15-Pad15)*%
X93700000Y-110800000D03*
%TD*%
D16*
%TO.P,R1,2*%
%TO.N,GND*%
X105390000Y-80650000D03*
D17*
%TO.P,R1,1*%
%TO.N,Net-(De1-K)*%
X113010000Y-80650000D03*
%TD*%
D20*
%TO.P,U1,1,VI*%
%TO.N,12V+*%
X90000000Y-135000000D03*
D21*
%TO.P,U1,2,GND*%
%TO.N,GND*%
X90000000Y-137540000D03*
%TO.P,U1,3,VO*%
%TO.N,VDD*%
X90000000Y-140080000D03*
%TD*%
D12*
%TO.P,J6,1,Pin_1*%
%TO.N,Net-(J4-Pin_6)*%
X126620000Y-152400000D03*
D13*
%TO.P,J6,2,Pin_2*%
%TO.N,Net-(J4-Pin_5)*%
X121620000Y-152400000D03*
%TD*%
D10*
%TO.P,J2,1,Pin_1*%
%TO.N,Net-(J2-Pin_1)*%
X129260000Y-85420000D03*
D11*
%TO.P,J2,2,Pin_2*%
%TO.N,Net-(J2-Pin_2)*%
X126720000Y-85420000D03*
%TO.P,J2,3,Pin_3*%
%TO.N,Net-(J2-Pin_3)*%
X124180000Y-85420000D03*
%TO.P,J2,4,Pin_4*%
%TO.N,Net-(J2-Pin_4)*%
X121640000Y-85420000D03*
%TO.P,J2,5,Pin_5*%
%TO.N,Net-(J2-Pin_5)*%
X119100000Y-85420000D03*
%TO.P,J2,6,Pin_6*%
%TO.N,unconnected-(J2-Pin_6-Pad6)*%
X116560000Y-85420000D03*
%TO.P,J2,7,Pin_7*%
%TO.N,Net-(De1-A)*%
X114020000Y-85420000D03*
%TO.P,J2,8,Pin_8*%
%TO.N,Net-(De2-A)*%
X111480000Y-85420000D03*
%TO.P,J2,9,Pin_9*%
%TO.N,unconnected-(J2-Pin_9-Pad9)*%
X108940000Y-85420000D03*
%TO.P,J2,10,Pin_10*%
%TO.N,unconnected-(J2-Pin_10-Pad10)*%
X106400000Y-85420000D03*
%TO.P,J2,11,Pin_11*%
%TO.N,unconnected-(J2-Pin_11-Pad11)*%
X103860000Y-85420000D03*
%TO.P,J2,12,Pin_12*%
%TO.N,unconnected-(J2-Pin_12-Pad12)*%
X101320000Y-85420000D03*
%TO.P,J2,13,Pin_13*%
%TO.N,unconnected-(J2-Pin_13-Pad13)*%
X98780000Y-85420000D03*
%TO.P,J2,14,Pin_14*%
%TO.N,GND*%
X96240000Y-85420000D03*
%TO.P,J2,15,Pin_15*%
%TO.N,VDD*%
X93700000Y-85420000D03*
%TD*%
M02*
